<svg xmlns="http://www.w3.org/2000/svg" viewBox="0 0 16 16" xml:space="preserve"><path fill="#F24405" d="M8.695 2.013c-.588 0-1.207.198-1.856.595-.517.316-1.128.447-1.733.483a2.688 2.688 0 0 1-.554-.03c-.142.341-.33.787-.353 1.223.216.091.646.064.853.044v9.038l-1.051.356-.071.569.055.103h3.856l.087-.64-.04-.111-1.58-.277v-3.073c.679.19 1.301.284 1.865.284s1.098-.122 1.604-.367.94-.578 1.304-.999c.764-.885 1.146-1.97 1.146-3.255 0-1.148-.319-2.089-.956-2.821-.653-.748-1.512-1.122-2.576-1.122zm1.517 6.779c-.216.284-.474.506-.774.664s-.613.237-.936.237c-.324 0-.61-.042-.857-.126-.558-.2-1.003-.503-1.335-.909v-4.97c.59-.311 1.151-.466 1.683-.466.953 0 1.672.279 2.157.838.506.574.758 1.375.758 2.402-.001.942-.232 1.719-.696 2.33z"/><path fill="#8C0303" d="M11.271 3.135c-.653-.748-1.512-1.122-2.576-1.122-.588 0-1.207.198-1.856.595-.517.316-1.128.447-1.733.483a2.688 2.688 0 0 1-.554-.03c-.142.341-.33.787-.353 1.223.216.091.646.064.853.044v3.178c.424-.056.844-.12 1.256-.209V3.688c.59-.311 1.151-.466 1.683-.466.953 0 1.672.279 2.157.838.342.389.559.89.67 1.487.432-.25.849-.519 1.254-.807-.15-.612-.407-1.153-.801-1.605z"/><path fill="#F29F05" d="m7.929 13.754-.04-.111-1.58-.277v-2.05c-.122-.016-.243-.039-.367-.039-.294 0-.591.07-.889.173v1.916l-1.051.356-.071.569.055.103h3.856l.087-.64z"/></svg>