<svg width="185" height="29" viewBox="0 0 185 29" fill="none" xmlns="http://www.w3.org/2000/svg">
<g clip-path="url(#clip0_148_1572)">
<path d="M184.628 14.547C184.709 14.2232 184.75 13.842 184.75 13.4033C184.75 11.8416 184.354 10.56 183.561 9.5541C183.164 9.04194 182.666 8.63773 182.069 8.33687C181.472 8.036 180.742 7.88672 179.882 7.88672C179.022 7.88672 178.174 8.08883 177.337 8.49304C176.501 8.89725 175.761 9.44845 175.122 10.1489C173.728 11.6739 173.029 13.4952 173.029 15.6127C173.029 17.5603 173.615 19.184 174.786 20.4839C175.966 21.8114 177.501 22.4751 179.391 22.4751C179.707 22.4751 180.016 22.4384 180.322 22.3672C181.717 22.0434 183.104 21.2326 184.483 19.9304C184.437 19.455 184.181 19.122 183.713 18.9337C182.623 19.8937 181.465 20.3737 180.242 20.3737C179.018 20.3737 177.918 19.9075 176.945 18.975C175.855 17.9254 175.302 16.5429 175.284 14.8295C176.616 14.8663 177.881 14.8824 179.078 14.8824C182.68 14.8824 184.529 14.7698 184.628 14.547ZM175.35 13.5916C175.521 12.2366 175.98 11.187 176.729 10.4429C177.423 9.73324 178.245 9.37955 179.2 9.37955C180.073 9.37955 180.825 9.81362 181.456 10.6841C182.032 11.4925 182.321 12.3744 182.321 13.3344C181.078 13.5044 179.105 13.5893 176.406 13.5893H175.35V13.5916Z" fill="#F24405"/>
<path d="M22.5226 20.2933V8.28862L22.2921 8.16919L18.4843 9.71485L18.3345 10.4429L18.4843 10.6037L20.3606 11.3983V20.2933L18.5788 20.872L18.4428 21.8941L18.5373 22.0158H24.5878L24.7377 20.9387L24.6824 20.7503L22.5226 20.2933Z" fill="#F24405"/>
<path d="M56.3939 18.9613C55.4674 19.9213 54.3056 20.4013 52.9088 20.4013C51.6665 20.4013 50.5624 19.9259 49.5989 18.9751C48.5087 17.9071 47.9647 16.513 47.9647 14.7905C47.9647 13.3275 48.3335 12.0713 49.0711 11.0217C49.8179 9.96293 50.7007 9.4347 51.7172 9.4347C53.0218 9.4347 54.2918 9.95145 55.525 10.9827C55.7947 10.7668 56.0482 10.4682 56.281 10.087C56.5138 9.70571 56.6544 9.28542 56.7005 8.82838C55.8638 8.21747 54.6791 7.91431 53.1486 7.91431C51.1041 7.91431 49.3546 8.66761 47.8956 10.1742C46.4365 11.6808 45.7082 13.5021 45.7082 15.638C45.7082 17.62 46.289 19.2438 47.4507 20.5092C48.6654 21.8367 50.2904 22.5004 52.3257 22.5004C52.5954 22.5004 52.8697 22.4637 53.1486 22.3925C54.4186 22.0687 55.7509 21.2579 57.1454 19.9557C57.15 19.5171 56.8987 19.1863 56.3939 18.9613Z" fill="#F24405"/>
<path d="M20.3006 4.95159C20.4943 5.03657 20.6925 5.08021 20.8953 5.08021C21.0982 5.08021 21.301 5.02968 21.5084 4.93092C21.7159 4.83217 21.9418 4.65532 22.1907 4.40039C22.4396 4.14546 22.5618 3.81474 22.5618 3.41053C22.5618 3.03388 22.3267 2.64344 21.8588 2.23923C21.5891 2.00727 21.2572 1.89014 20.8608 1.89014C20.4274 1.89014 20.0494 2.06928 19.7267 2.42756C19.5815 2.59062 19.4663 2.76746 19.381 2.96038C19.2957 3.1533 19.2519 3.39675 19.2519 3.69302C19.2519 3.98929 19.4294 4.29475 19.7797 4.60939C19.9342 4.75178 20.107 4.86662 20.3006 4.95159Z" fill="#F24405"/>
<path d="M155.334 0.891113C152.739 0.891113 150.634 2.98797 150.634 5.57402C153.232 5.57402 155.334 3.47716 155.334 0.891113Z" fill="#F24405"/>
<path d="M8.89341 7.91211C7.88845 7.91211 6.83047 8.24972 5.72179 8.92494C4.83669 9.46466 3.79254 9.68743 2.75992 9.74944C2.44184 9.76782 2.11914 9.74485 1.81258 9.69892C1.57056 10.28 1.24787 11.0379 1.20869 11.782C1.57748 11.9382 2.31276 11.8899 2.66772 11.8578V27.2523L0.872163 27.8587L0.75 28.8255L0.844503 29.0001H7.43437L7.58189 27.9092L7.51735 27.7209L4.81594 27.25V22.0159C5.97764 22.3398 7.04022 22.5005 8.0037 22.5005C8.96717 22.5005 9.87993 22.2915 10.7443 21.8758C11.6086 21.4601 12.3508 20.8906 12.9732 20.174C14.2778 18.6674 14.9324 16.8186 14.9324 14.6299C14.9324 12.6731 14.3884 11.0723 13.2982 9.82523C12.1803 8.55058 10.712 7.91211 8.89341 7.91211ZM11.4865 19.4597C11.1177 19.9443 10.6751 20.321 10.1634 20.5897C9.65174 20.8584 9.11699 20.9939 8.5638 20.9939C8.01061 20.9939 7.52196 20.9204 7.09785 20.778C6.1436 20.4358 5.38296 19.9214 4.81594 19.2301V10.7646C5.82551 10.2363 6.78437 9.96992 7.69253 9.96992C9.32213 9.96992 10.5507 10.4453 11.3805 11.3962C12.2448 12.3745 12.6758 13.7388 12.6758 15.4865C12.6758 17.0942 12.2794 18.4171 11.4865 19.4597Z" fill="#F24405"/>
<path d="M72.5471 20.2933V12.6638C72.5471 11.2284 72.1829 10.0847 71.4522 9.2326C70.687 8.35297 69.6336 7.91431 68.2921 7.91431C66.9598 7.91431 65.3441 8.53441 63.4425 9.77231V0.121723L63.2281 0L59.1483 1.50661L59.0262 2.23236L59.1483 2.39313L61.2827 2.93055V20.291L59.5264 20.8721L59.4042 21.8941L59.4572 22.0158H65.5077L65.7106 20.9387L65.6161 20.7504L63.4448 20.2933V10.9804C64.9661 10.2891 66.3675 9.94456 67.6444 9.94456C69.4722 9.94456 70.385 11.0653 70.385 13.3092V20.2933L68.4396 20.8721L68.3175 21.8941L68.412 22.0158H74.8267L74.988 20.9387L74.8935 20.7504L72.5471 20.2933Z" fill="#F24405"/>
<path d="M40.8216 20.2933V12.5145C40.8216 11.0791 40.4482 9.95834 39.7014 9.14992C38.9454 8.32541 37.8897 7.84771 36.5413 7.91201C32.8211 8.08886 31.1915 10.064 28.5316 8.87661C28.2896 9.45767 27.9669 10.2156 27.9277 10.9597C28.2988 11.1159 29.2047 11.3386 29.5596 11.3042V20.2933L27.7779 20.8721L27.6419 21.8941L27.7364 22.0158H33.7869L33.9344 20.9387L33.8814 20.7504L31.7194 20.2933V10.9804C33.2406 10.2891 34.6282 9.94456 35.8798 9.94456C37.7261 9.94456 38.6481 11.0125 38.6481 13.1484V20.2933L36.7027 20.8721L36.5805 21.8941L36.6335 22.0158H43.0621L43.2234 20.9387L43.1566 20.7504L40.8216 20.2933Z" fill="#F24405"/>
<path d="M170.178 18.9613C169.251 19.9213 168.09 20.4013 166.693 20.4013C165.451 20.4013 164.347 19.9259 163.383 18.9751C162.293 17.9071 161.749 16.513 161.749 14.7905C161.749 13.3275 162.118 12.0713 162.855 11.0217C163.602 9.96293 164.485 9.4347 165.501 9.4347C166.806 9.4347 168.076 9.95145 169.309 10.9827C169.579 10.7668 169.832 10.4682 170.065 10.087C170.298 9.70571 170.439 9.28542 170.485 8.82838C169.648 8.21747 168.463 7.91431 166.933 7.91431C164.888 7.91431 163.139 8.66761 161.68 10.1742C160.221 11.6808 159.492 13.5021 159.492 15.638C159.492 17.62 160.073 19.2438 161.235 20.5092C162.45 21.8367 164.075 22.5004 166.11 22.5004C166.379 22.5004 166.654 22.4637 166.933 22.3925C168.203 22.0687 169.535 21.2579 170.929 19.9557C170.934 19.5171 170.683 19.1863 170.178 18.9613Z" fill="#F24405"/>
<path d="M154.742 20.2932V8.28856L154.26 7.85449L150.703 9.71479L150.554 10.4428L150.703 10.6036L152.58 11.3982V20.2932L150.798 20.872L150.662 21.894L150.756 22.0157H156.807L156.957 20.9386L156.902 20.7503L154.742 20.2932Z" fill="#F24405"/>
<path d="M127.46 14.3862L126.218 13.7799C125.803 13.5824 125.437 13.3619 125.116 13.1208C124.796 12.8796 124.54 12.6017 124.346 12.294C124.153 11.9862 124.056 11.6601 124.056 11.3179C124.056 10.9757 124.102 10.6955 124.192 10.4704C124.471 9.69873 125.01 9.31289 125.812 9.31289C127.011 9.31289 128.002 10.119 129.337 10.645C129.572 10.4199 129.811 10.1213 130.012 9.724C130.18 9.39098 130.256 9.21184 130.318 8.79844C128.949 8.4838 128.007 7.95097 126.838 7.91422C125.48 7.87059 124.344 8.29088 123.434 9.04418C122.498 9.80668 122.03 10.7529 122.03 11.8829C122.03 12.96 122.422 13.897 123.205 14.6963C123.602 15.1005 124.344 15.5483 125.434 16.0421L126.704 16.6071C127.11 16.7954 127.472 17.0067 127.792 17.2387C128.113 17.4707 128.368 17.7417 128.562 18.0471C128.756 18.3526 128.853 18.7752 128.853 19.3195C128.853 19.8638 128.606 20.3047 128.11 20.6446C127.894 20.8054 127.64 20.9225 127.347 20.9937C127.055 21.0649 126.743 21.1017 126.416 21.1017C126.089 21.1017 125.748 21.0557 125.397 20.9662C124.381 20.6883 123.429 20.1715 122.548 19.4182C121.954 19.9648 121.626 20.6515 121.562 21.476C121.832 21.6644 122.302 21.8825 122.973 22.1283C123.643 22.374 124.581 22.4981 125.789 22.4981C127.23 22.4981 128.431 22.1398 129.394 21.4209C130.385 20.6676 130.881 19.703 130.881 18.5271C130.881 17.4775 130.494 16.5589 129.719 15.7688C129.33 15.3853 128.576 14.9236 127.46 14.3862Z" fill="#F24405"/>
<path d="M106.296 1.88327C105.333 3.04997 104.851 4.55199 104.851 6.39162V8.38283L102.853 8.94781C102.726 9.09939 102.664 9.27623 102.664 9.47375C102.664 9.60925 102.682 9.76542 102.717 9.94456H104.851V20.2933L103.069 20.8721L102.933 21.8941L103.028 22.0158H109.754L109.915 20.9387L109.862 20.7504L107.013 20.2933V9.94456H110.443C110.65 9.64829 110.754 9.3658 110.754 9.09709C110.754 8.82838 110.731 8.58034 110.687 8.35757C109.184 8.44714 107.958 8.49307 107.013 8.49307V5.7876C107.013 5.04348 107.066 4.405 107.174 3.87677C107.49 2.3426 108.039 1.57551 108.822 1.57551C110.021 1.57551 110.987 1.88097 111.727 2.48959C111.962 2.31045 112.181 2.03714 112.388 1.66968C112.596 1.30221 112.709 0.897996 112.725 0.459333C111.943 0.15158 111.208 0 110.524 0C108.742 0 107.333 0.62699 106.296 1.88327Z" fill="#F24405"/>
<path d="M145.805 9.82294C144.69 8.54829 143.222 7.91211 141.403 7.91211C140.398 7.91211 139.34 8.24972 138.231 8.92494C137.346 9.46236 136.302 9.68743 135.27 9.74715C134.951 9.76552 134.629 9.74255 134.322 9.69662C134.08 10.2777 133.757 11.0356 133.718 11.7797C134.087 11.9359 134.822 11.8876 135.177 11.8555V27.25L133.382 27.8564L133.26 28.8255L133.354 29.0001H139.944L140.091 27.9092L140.025 27.7209L137.323 27.25V22.0159C138.485 22.3398 139.547 22.5005 140.511 22.5005C141.474 22.5005 142.387 22.2915 143.252 21.8758C144.116 21.4601 144.858 20.8906 145.48 20.174C146.785 18.6674 147.44 16.8186 147.44 14.6299C147.44 12.6731 146.896 11.07 145.805 9.82294ZM143.996 19.4597C143.627 19.9443 143.185 20.321 142.673 20.5897C142.161 20.8584 141.627 20.9939 141.073 20.9939C140.52 20.9939 140.032 20.9227 139.607 20.778C138.653 20.4381 137.893 19.9214 137.326 19.2301V10.7646C138.335 10.2363 139.294 9.96992 140.202 9.96992C141.832 9.96992 143.06 10.4453 143.89 11.3962C144.754 12.3745 145.185 13.7388 145.185 15.4865C145.185 17.0942 144.789 18.4171 143.996 19.4597Z" fill="#F24405"/>
<path d="M98.4502 9.93088C97.2355 8.58503 95.622 7.91211 93.6144 7.91211C91.669 7.91211 89.991 8.64245 88.5757 10.1054C87.9188 10.7875 87.3979 11.5891 87.0153 12.5146C86.6327 13.4402 86.4413 14.4071 86.4413 15.4222C86.4413 17.441 87.0453 19.113 88.2507 20.4427C89.5023 21.8161 91.1043 22.5005 93.0589 22.5005C95.0388 22.5005 96.7191 21.784 98.0975 20.3463C99.5012 18.8741 100.204 17.0712 100.204 14.9376C100.207 12.8913 99.6211 11.2239 98.4502 9.93088ZM97.4913 18.1943C96.9151 20.0592 95.6358 20.9939 93.6559 20.9939C92.4573 20.9939 91.374 20.3968 90.4013 19.2048C89.9426 18.6398 89.5692 17.9715 89.2811 17.1998C88.9929 16.4281 88.8477 15.5876 88.8477 14.6758C88.8477 13.764 88.9468 12.9809 89.1451 12.3217C89.3433 11.6626 89.6268 11.1183 89.9956 10.6865C90.3644 10.2547 90.8115 9.93547 91.3394 9.72418C91.8672 9.51289 92.425 9.40724 93.0151 9.40724C93.6051 9.40724 94.1768 9.56112 94.73 9.87117C95.2832 10.1812 95.7879 10.6153 96.242 11.1757C96.6961 11.7361 97.0695 12.4113 97.3622 13.2013C97.655 13.9914 97.8002 14.8572 97.8002 15.7989C97.8002 16.7405 97.6988 17.5397 97.4913 18.1943Z" fill="#F24405"/>
<path d="M13.2959 9.82294C12.1803 8.54829 10.712 7.91211 8.8934 7.91211C7.88844 7.91211 6.83047 8.24972 5.72178 8.92494C4.83668 9.46466 3.79253 9.68743 2.75991 9.74944C2.44183 9.76782 2.11914 9.74485 1.81258 9.69892C1.57056 10.28 1.24786 11.0379 1.20868 11.782C1.57747 11.9382 2.31275 11.8899 2.66772 11.8578V17.271C3.39147 17.1746 4.11062 17.0643 4.81594 16.9127V10.7646C5.82551 10.2363 6.78437 9.96992 7.69252 9.96992C9.32212 9.96992 10.5507 10.4453 11.3804 11.3962C11.9659 12.0576 12.337 12.912 12.526 13.9294C13.2636 13.5045 13.9781 13.0452 14.6696 12.556C14.4092 11.5156 13.9689 10.5946 13.2959 9.82294Z" fill="#8C0303"/>
<path d="M184.628 14.547C184.709 14.2232 184.75 13.842 184.75 13.4033C184.75 11.8416 184.354 10.56 183.561 9.5541C183.164 9.04194 182.666 8.63773 182.069 8.33687C181.472 8.036 180.742 7.88672 179.882 7.88672C179.022 7.88672 178.174 8.08883 177.337 8.49304C176.501 8.89725 175.761 9.44845 175.122 10.1489C173.728 11.6739 173.029 13.4952 173.029 15.6127C173.029 17.5603 173.615 19.184 174.786 20.4839C175.966 21.8114 177.501 22.4751 179.391 22.4751C179.707 22.4751 180.016 22.4384 180.322 22.3672C181.717 22.0434 183.104 21.2326 184.483 19.9304C184.437 19.455 184.181 19.122 183.713 18.9337C182.623 19.8937 181.465 20.3737 180.242 20.3737C179.018 20.3737 177.918 19.9075 176.945 18.975C175.855 17.9254 175.302 16.5429 175.284 14.8295C176.616 14.8663 177.881 14.8824 179.078 14.8824C182.68 14.8824 184.529 14.7698 184.628 14.547ZM175.35 13.5916C175.521 12.2366 175.98 11.187 176.729 10.4429C177.423 9.73324 178.245 9.37955 179.2 9.37955C180.073 9.37955 180.825 9.81362 181.456 10.6841C182.032 11.4925 182.321 12.3744 182.321 13.3344C181.078 13.5044 179.105 13.5893 176.406 13.5893H175.35V13.5916Z" fill="#F24405"/>
<path d="M22.5226 20.2933V8.28862L22.2921 8.16919L18.4843 9.71485L18.3345 10.4429L18.4843 10.6037L20.3606 11.3983V20.2933L18.5788 20.872L18.4428 21.8941L18.5373 22.0158H24.5878L24.7377 20.9387L24.6824 20.7503L22.5226 20.2933Z" fill="#F24405"/>
<path d="M56.3939 18.9613C55.4674 19.9213 54.3056 20.4013 52.9088 20.4013C51.6665 20.4013 50.5624 19.9259 49.5989 18.9751C48.5087 17.9071 47.9647 16.513 47.9647 14.7905C47.9647 13.3275 48.3335 12.0713 49.0711 11.0217C49.8179 9.96293 50.7007 9.4347 51.7172 9.4347C53.0218 9.4347 54.2918 9.95145 55.525 10.9827C55.7947 10.7668 56.0482 10.4682 56.281 10.087C56.5138 9.70571 56.6544 9.28542 56.7005 8.82838C55.8638 8.21747 54.6791 7.91431 53.1486 7.91431C51.1041 7.91431 49.3546 8.66761 47.8956 10.1742C46.4365 11.6808 45.7082 13.5021 45.7082 15.638C45.7082 17.62 46.289 19.2438 47.4507 20.5092C48.6654 21.8367 50.2904 22.5004 52.3257 22.5004C52.5954 22.5004 52.8697 22.4637 53.1486 22.3925C54.4186 22.0687 55.7509 21.2579 57.1454 19.9557C57.15 19.5171 56.8987 19.1863 56.3939 18.9613Z" fill="#F24405"/>
<path d="M20.3006 4.95159C20.4942 5.03657 20.6925 5.08021 20.8953 5.08021C21.0981 5.08021 21.301 5.02968 21.5084 4.93092C21.7159 4.83217 21.9417 4.65532 22.1907 4.40039C22.4396 4.14546 22.5618 3.81474 22.5618 3.41053C22.5618 3.03388 22.3267 2.64344 21.8588 2.23923C21.5891 2.00727 21.2572 1.89014 20.8607 1.89014C20.4274 1.89014 20.0494 2.06928 19.7267 2.42756C19.5815 2.59062 19.4662 2.76746 19.3809 2.96038C19.2957 3.1533 19.2519 3.39675 19.2519 3.69302C19.2519 3.98929 19.4293 4.29475 19.7797 4.60939C19.9341 4.75178 20.107 4.86662 20.3006 4.95159Z" fill="#F24405"/>
<path d="M155.334 0.891113C152.739 0.891113 150.634 2.98797 150.634 5.57402C153.232 5.57402 155.334 3.47716 155.334 0.891113Z" fill="#F24405"/>
<path d="M72.547 20.2933V12.6638C72.547 11.2284 72.1829 10.0847 71.4522 9.2326C70.6869 8.35297 69.6336 7.91431 68.2921 7.91431C66.9598 7.91431 65.3441 8.53441 63.4425 9.77231V0.121723L63.2281 0L59.1483 1.50661L59.0262 2.23236L59.1483 2.39313L61.2827 2.93055V20.291L59.5264 20.8721L59.4042 21.8941L59.4572 22.0158H65.5077L65.7106 20.9387L65.616 20.7504L63.4448 20.2933V10.9804C64.9661 10.2891 66.3675 9.94456 67.6444 9.94456C69.4722 9.94456 70.385 11.0653 70.385 13.3092V20.2933L68.4396 20.8721L68.3175 21.8941L68.412 22.0158H74.8266L74.988 20.9387L74.8935 20.7504L72.547 20.2933Z" fill="#F24405"/>
<path d="M40.8216 20.2933V12.5145C40.8216 11.0791 40.4482 9.95834 39.7014 9.14992C38.9454 8.32541 37.8897 7.84771 36.5413 7.91201C32.8211 8.08886 31.1915 10.064 28.5316 8.87661C28.2896 9.45767 27.9669 10.2156 27.9277 10.9597C28.2988 11.1159 29.2047 11.3386 29.5596 11.3042V20.2933L27.7779 20.8721L27.6419 21.8941L27.7364 22.0158H33.7869L33.9344 20.9387L33.8814 20.7504L31.7194 20.2933V10.9804C33.2406 10.2891 34.6282 9.94456 35.8798 9.94456C37.7261 9.94456 38.6481 11.0125 38.6481 13.1484V20.2933L36.7027 20.8721L36.5805 21.8941L36.6335 22.0158H43.0621L43.2234 20.9387L43.1566 20.7504L40.8216 20.2933Z" fill="#F24405"/>
<path d="M170.178 18.9613C169.251 19.9213 168.09 20.4013 166.693 20.4013C165.451 20.4013 164.347 19.9259 163.383 18.9751C162.293 17.9071 161.749 16.513 161.749 14.7905C161.749 13.3275 162.118 12.0713 162.855 11.0217C163.602 9.96293 164.485 9.4347 165.501 9.4347C166.806 9.4347 168.076 9.95145 169.309 10.9827C169.579 10.7668 169.832 10.4682 170.065 10.087C170.298 9.70571 170.439 9.28542 170.485 8.82838C169.648 8.21747 168.463 7.91431 166.933 7.91431C164.888 7.91431 163.139 8.66761 161.68 10.1742C160.221 11.6808 159.492 13.5021 159.492 15.638C159.492 17.62 160.073 19.2438 161.235 20.5092C162.45 21.8367 164.075 22.5004 166.11 22.5004C166.379 22.5004 166.654 22.4637 166.933 22.3925C168.203 22.0687 169.535 21.2579 170.929 19.9557C170.934 19.5171 170.683 19.1863 170.178 18.9613Z" fill="#F24405"/>
<path d="M154.742 20.2932V8.28856L154.26 7.85449L150.703 9.71479L150.554 10.4428L150.703 10.6036L152.58 11.3982V20.2932L150.798 20.872L150.662 21.894L150.756 22.0157H156.807L156.957 20.9386L156.902 20.7503L154.742 20.2932Z" fill="#F24405"/>
<path d="M127.46 14.3862L126.218 13.7799C125.803 13.5824 125.437 13.3619 125.116 13.1208C124.796 12.8796 124.54 12.6017 124.346 12.294C124.153 11.9862 124.056 11.6601 124.056 11.3179C124.056 10.9757 124.102 10.6955 124.192 10.4704C124.471 9.69873 125.01 9.31289 125.812 9.31289C127.011 9.31289 128.002 10.119 129.337 10.645C129.572 10.4199 129.811 10.1213 130.012 9.724C130.18 9.39098 130.256 9.21184 130.318 8.79844C128.949 8.4838 128.007 7.95097 126.838 7.91422C125.48 7.87059 124.344 8.29088 123.434 9.04418C122.498 9.80668 122.03 10.7529 122.03 11.8829C122.03 12.96 122.422 13.897 123.205 14.6963C123.602 15.1005 124.344 15.5483 125.434 16.0421L126.704 16.6071C127.11 16.7954 127.472 17.0067 127.792 17.2387C128.113 17.4707 128.368 17.7417 128.562 18.0471C128.756 18.3526 128.853 18.7752 128.853 19.3195C128.853 19.8638 128.606 20.3047 128.11 20.6446C127.894 20.8054 127.64 20.9225 127.347 20.9937C127.055 21.0649 126.743 21.1017 126.416 21.1017C126.089 21.1017 125.748 21.0557 125.397 20.9662C124.381 20.6883 123.429 20.1715 122.548 19.4182C121.954 19.9648 121.626 20.6515 121.562 21.476C121.832 21.6644 122.302 21.8825 122.973 22.1283C123.643 22.374 124.581 22.4981 125.789 22.4981C127.23 22.4981 128.431 22.1398 129.394 21.4209C130.385 20.6676 130.881 19.703 130.881 18.5271C130.881 17.4775 130.494 16.5589 129.719 15.7688C129.33 15.3853 128.576 14.9236 127.46 14.3862Z" fill="#F24405"/>
<path d="M145.805 9.82294C144.69 8.54829 143.222 7.91211 141.403 7.91211C140.398 7.91211 139.34 8.24972 138.231 8.92494C137.346 9.46236 136.302 9.68743 135.27 9.74715C134.951 9.76552 134.629 9.74255 134.322 9.69662C134.08 10.2777 133.757 11.0356 133.718 11.7797C134.087 11.9359 134.822 11.8876 135.177 11.8555V27.25L133.382 27.8564L133.26 28.8255L133.354 29.0001H139.944L140.091 27.9092L140.025 27.7209L137.323 27.25V22.0159C138.485 22.3398 139.547 22.5005 140.511 22.5005C141.474 22.5005 142.387 22.2915 143.252 21.8758C144.116 21.4601 144.858 20.8906 145.48 20.174C146.785 18.6674 147.44 16.8186 147.44 14.6299C147.44 12.6731 146.896 11.07 145.805 9.82294ZM143.996 19.4597C143.627 19.9443 143.185 20.321 142.673 20.5897C142.161 20.8584 141.627 20.9939 141.073 20.9939C140.52 20.9939 140.032 20.9227 139.607 20.778C138.653 20.4381 137.893 19.9214 137.326 19.2301V10.7646C138.335 10.2363 139.294 9.96992 140.202 9.96992C141.832 9.96992 143.06 10.4453 143.89 11.3962C144.754 12.3745 145.185 13.7388 145.185 15.4865C145.185 17.0942 144.789 18.4171 143.996 19.4597Z" fill="#F24405"/>
<path d="M98.4502 9.93088C97.2355 8.58503 95.622 7.91211 93.6144 7.91211C91.669 7.91211 89.991 8.64245 88.5757 10.1054C87.9188 10.7875 87.3979 11.5891 87.0153 12.5146C86.6327 13.4402 86.4413 14.4071 86.4413 15.4222C86.4413 17.441 87.0453 19.113 88.2507 20.4427C89.5023 21.8161 91.1043 22.5005 93.0589 22.5005C95.0388 22.5005 96.7191 21.784 98.0975 20.3463C99.5012 18.8741 100.204 17.0712 100.204 14.9376C100.207 12.8913 99.6211 11.2239 98.4502 9.93088ZM97.4913 18.1943C96.9151 20.0592 95.6358 20.9939 93.6559 20.9939C92.4573 20.9939 91.374 20.3968 90.4013 19.2048C89.9426 18.6398 89.5692 17.9715 89.2811 17.1998C88.9929 16.4281 88.8477 15.5876 88.8477 14.6758C88.8477 13.764 88.9468 12.9809 89.1451 12.3217C89.3433 11.6626 89.6268 11.1183 89.9956 10.6865C90.3644 10.2547 90.8115 9.93547 91.3394 9.72418C91.8672 9.51289 92.425 9.40724 93.0151 9.40724C93.6051 9.40724 94.1768 9.56112 94.73 9.87117C95.2832 10.1812 95.7879 10.6153 96.242 11.1757C96.6961 11.7361 97.0695 12.4113 97.3622 13.2013C97.655 13.9914 97.8002 14.8572 97.8002 15.7989C97.8002 16.7405 97.6988 17.5397 97.4913 18.1943Z" fill="#F24405"/>
<path d="M97.761 15.282C97.7725 15.4566 97.8025 15.6196 97.8025 15.7988C97.8025 16.7404 97.6988 17.5397 97.4913 18.1942C96.9151 20.0591 95.6358 20.9938 93.6559 20.9938C93.6213 20.9938 93.589 20.9824 93.5567 20.9801C93.2917 21.467 93.0658 21.9745 92.8307 22.4798C92.9114 22.4821 92.9828 22.5005 93.0635 22.5005C95.0434 22.5005 96.7238 21.7839 98.1021 20.3462C99.5058 18.874 100.209 17.0711 100.209 14.9375C100.209 14.3059 100.133 13.7203 100.022 13.1599C99.22 13.8191 98.4755 14.5356 97.761 15.282Z" fill="#8C0303"/>
<path d="M109.917 20.9388L109.864 20.7505L107.015 20.2934V9.94466H110.445C110.653 9.64839 110.756 9.3659 110.756 9.09719C110.756 8.82848 110.733 8.58044 110.689 8.35767C109.869 8.4059 109.147 8.44035 108.493 8.46102C107.234 8.8859 106.02 9.40035 104.853 9.99749V20.2934L103.072 20.8722L102.936 21.8942L103.03 22.0159H109.756L109.917 20.9388Z" fill="#8C0303"/>
<path d="M140.511 22.5005C141.474 22.5005 142.387 22.2915 143.252 21.8759C144.116 21.4602 144.858 20.8906 145.48 20.174C146.663 18.8075 147.281 17.147 147.394 15.2224C146.647 15.2729 145.911 15.3556 145.183 15.4659C145.183 15.475 145.185 15.4819 145.185 15.4911C145.185 17.0965 144.789 18.4194 143.996 19.4621C143.627 19.9467 143.185 20.3233 142.673 20.592C142.161 20.8607 141.627 20.9962 141.073 20.9962C140.52 20.9962 140.032 20.925 139.607 20.7803C138.653 20.4404 137.893 19.9237 137.326 19.2324V17.9279C136.588 18.2931 135.873 18.6881 135.177 19.1176V27.2523L133.382 27.8587L133.26 28.8279L133.354 29.0024H139.944L140.091 27.9115L140.025 27.7232L137.323 27.2523V22.016C138.485 22.3398 139.548 22.5005 140.511 22.5005Z" fill="#8C0303"/>
<path d="M182.318 13.3346C181.507 13.4448 180.35 13.516 178.916 13.555C178.575 13.9822 178.248 14.4186 177.932 14.8641C178.305 14.8664 178.716 14.8802 179.075 14.8802C182.676 14.8802 184.526 14.7677 184.626 14.5449C184.706 14.2211 184.748 13.8398 184.748 13.4012C184.748 11.8394 184.351 10.5579 183.558 9.55195C183.468 9.43482 183.353 9.34295 183.252 9.2373C182.641 9.7196 182.058 10.2318 181.493 10.7646C182.037 11.5523 182.318 12.4067 182.318 13.3346Z" fill="#8C0303"/>
<path d="M179.389 22.4729C179.704 22.4729 180.013 22.4362 180.32 22.365C181.714 22.0411 183.102 21.2304 184.48 19.9282C184.434 19.4528 184.178 19.1198 183.71 18.9315C182.62 19.8915 181.463 20.3715 180.239 20.3715C179.015 20.3715 177.916 19.9052 176.943 18.9728C176.604 18.6467 176.337 18.2769 176.102 17.8865C175.648 18.7569 175.251 19.6595 174.894 20.5828C176.06 21.8344 177.554 22.4729 179.389 22.4729Z" fill="#8C0303"/>
<path d="M47.8979 10.1742C46.4388 11.6808 45.7104 13.5021 45.7104 15.638C45.7104 16.5842 45.851 17.4432 46.1161 18.2263C47.0104 18.1483 47.8909 18.0265 48.7553 17.8658C48.2413 16.9907 47.9647 15.9733 47.9647 14.7905C47.9647 13.3276 48.3335 12.0713 49.0711 11.0217C49.8179 9.96294 50.7007 9.4347 51.7172 9.4347C53.0218 9.4347 54.2918 9.95145 55.5249 10.9827C55.7946 10.7668 56.0482 10.4682 56.281 10.087C56.5138 9.70571 56.6544 9.28542 56.7005 8.82839C55.8638 8.21747 54.679 7.91431 53.1485 7.91431C51.1087 7.91202 49.3569 8.66532 47.8979 10.1742Z" fill="#8C0303"/>
<path d="M7.58419 27.9091L7.51735 27.7207L4.81594 27.2499V23.759C4.60619 23.7314 4.39874 23.6924 4.18899 23.6924C3.68651 23.6924 3.17942 23.8118 2.67003 23.9864V27.2499L0.874468 27.8562L0.75 28.8254L0.844503 29H7.43437L7.58419 27.9091Z" fill="#F29F05"/>
<path d="M74.829 22.0159L74.9903 20.9387L74.8958 20.7504L72.5447 20.2934V17.1561C72.2751 17.1102 72.0054 17.0688 71.7311 17.0688C71.2862 17.0688 70.8345 17.163 70.3827 17.3008V20.2911L68.4373 20.8698L68.3152 21.8918L68.4097 22.0136H74.829V22.0159Z" fill="#F29F05"/>
<path d="M170.07 10.087C170.305 9.70571 170.443 9.28542 170.489 8.82838C169.653 8.21747 168.468 7.91431 166.937 7.91431C165.7 7.91431 164.582 8.22436 163.558 8.77785C163.747 9.09939 163.987 9.42322 164.268 9.74934C164.658 9.55183 165.066 9.4324 165.506 9.4324C166.811 9.4324 168.081 9.94915 169.314 10.9804C169.583 10.7668 169.835 10.4682 170.07 10.087Z" fill="#F29F05"/>
<path d="M38.6481 13.1484V15.8286C39.4341 15.6518 40.1555 15.2568 40.8217 14.6895V12.5145C40.8217 11.0791 40.4483 9.95834 39.7015 9.14992C38.9454 8.32541 37.8898 7.84771 36.5414 7.91201C34.5868 8.00388 33.213 8.58723 31.9614 8.9524C31.7816 9.48293 31.6802 10.0617 31.6802 10.7025C31.6802 10.7943 31.7148 10.8885 31.724 10.9804C33.2453 10.2914 34.6305 9.94456 35.8821 9.94456C37.7238 9.94456 38.6481 11.0125 38.6481 13.1484Z" fill="#F29F05"/>
<path d="M123.436 9.04425C122.5 9.80674 122.032 10.753 122.032 11.8829C122.032 12.9601 122.424 13.8971 123.208 14.6963C123.235 14.7262 123.298 14.7584 123.33 14.7882C124.284 14.4873 125.211 14.1222 126.117 13.7203C125.75 13.5365 125.409 13.3413 125.119 13.1231C124.798 12.882 124.542 12.6041 124.349 12.2963C124.155 11.9886 124.058 11.6624 124.058 11.3202C124.058 10.978 124.104 10.6978 124.194 10.4728C124.473 9.70109 125.012 9.31525 125.815 9.31525C127.013 9.31525 128.004 10.1214 129.339 10.6473C129.574 10.4222 129.814 10.1237 130.014 9.72636C130.182 9.39334 130.259 9.2142 130.321 8.8008C128.952 8.48616 128.009 7.95333 126.84 7.91658C125.48 7.86835 124.344 8.28864 123.436 9.04425Z" fill="#F29F05"/>
<path d="M137.323 11.2537C137.323 11.2973 137.316 11.3386 137.316 11.3823C137.319 11.3823 137.321 11.3823 137.323 11.3823V11.2537Z" fill="#F29F05"/>
<path d="M145.805 9.82294C144.69 8.54829 143.222 7.91211 141.403 7.91211C140.398 7.91211 139.34 8.24972 138.231 8.92494C137.982 9.07652 137.697 9.15231 137.427 9.25796C137.388 9.75174 137.362 10.2524 137.351 10.7531C138.349 10.2317 139.301 9.96992 140.202 9.96992C141.389 9.96992 142.357 10.2294 143.12 10.7347C144.068 10.5257 144.994 10.2616 145.902 9.95614C145.865 9.9148 145.842 9.86428 145.805 9.82294Z" fill="#F29F05"/>
<path d="M88.578 10.1053C87.9211 10.7874 87.4002 11.589 87.0176 12.5145C86.6995 13.2816 86.545 14.0877 86.492 14.9191C87.3103 14.6344 88.1101 14.3128 88.8892 13.9545C88.9307 13.3528 89.0021 12.7924 89.145 12.3216C89.3433 11.6625 89.6268 11.1182 89.9956 10.6864C90.3644 10.2546 90.8115 9.93538 91.3393 9.72408C91.8672 9.51279 92.425 9.40714 93.0151 9.40714C93.6051 9.40714 94.1768 9.56102 94.7299 9.87107C94.8267 9.92619 94.9143 10.0043 95.0088 10.0686C95.5689 9.59317 96.1175 9.10858 96.6361 8.58953C95.751 8.15546 94.753 7.91431 93.6143 7.91431C91.6713 7.91202 89.991 8.64465 88.578 10.1053Z" fill="#F29F05"/>
</g>
<defs>
<clipPath id="clip0_148_1572">
<rect width="184" height="29" fill="white" transform="translate(0.75)"/>
</clipPath>
</defs>
</svg>
