<svg width="185" height="29" fill="none" xmlns="http://www.w3.org/2000/svg"><g clip-path="url(#a)"><path d="M184.628 14.547a4.75 4.75 0 0 0 .122-1.144c0-1.561-.396-2.843-1.189-3.849a4.314 4.314 0 0 0-1.492-1.217c-.597-.301-1.327-.45-2.187-.45-.86 0-1.708.202-2.545.606a7.243 7.243 0 0 0-2.215 1.656c-1.394 1.525-2.093 3.346-2.093 5.464 0 1.947.586 3.571 1.757 4.87 1.18 1.328 2.715 1.992 4.605 1.992.316 0 .625-.037.931-.108 1.395-.324 2.782-1.134 4.161-2.437-.046-.475-.302-.808-.77-.996-1.09.96-2.248 1.44-3.471 1.44-1.224 0-2.324-.466-3.297-1.399-1.09-1.05-1.643-2.432-1.661-4.146 1.332.037 2.597.053 3.794.053 3.602 0 5.451-.112 5.55-.335Zm-9.278-.955c.171-1.355.63-2.405 1.379-3.15.694-.709 1.516-1.062 2.471-1.062.873 0 1.625.434 2.256 1.304.576.809.865 1.69.865 2.65-1.243.17-3.216.255-5.915.255h-1.056v.003ZM22.523 20.293V8.29l-.23-.12-3.809 1.546-.15.728.15.16 1.877.795v8.895l-1.782.579-.136 1.022.094.122h6.05l.15-1.077-.055-.189-2.16-.457ZM56.394 18.961c-.927.96-2.088 1.44-3.485 1.44-1.242 0-2.347-.475-3.31-1.426-1.09-1.068-1.634-2.462-1.634-4.185 0-1.462.368-2.719 1.106-3.768.747-1.06 1.63-1.587 2.646-1.587 1.305 0 2.575.516 3.808 1.548.27-.216.523-.515.756-.896.233-.381.373-.802.42-1.259-.837-.61-2.022-.914-3.552-.914-2.045 0-3.794.754-5.253 2.26-1.46 1.507-2.188 3.328-2.188 5.464 0 1.982.581 3.606 1.743 4.871 1.214 1.328 2.84 1.991 4.875 1.991.27 0 .544-.036.823-.108 1.27-.323 2.602-1.134 3.996-2.436.005-.439-.246-.77-.751-.995ZM20.3 4.952c.194.085.392.128.595.128.203 0 .406-.05.613-.15.208-.098.434-.275.683-.53.249-.255.37-.585.37-.99 0-.376-.234-.767-.702-1.17-.27-.233-.602-.35-.998-.35-.434 0-.812.18-1.134.538-.146.163-.26.34-.346.532-.085.193-.13.437-.13.733s.178.602.529.916c.154.143.327.258.52.343ZM155.334.891c-2.595 0-4.7 2.097-4.7 4.683a4.69 4.69 0 0 0 4.7-4.683ZM8.893 7.912c-1.005 0-2.063.338-3.171 1.013-.885.54-1.93.762-2.962.824a4.64 4.64 0 0 1-.947-.05c-.242.581-.565 1.339-.604 2.083.368.156 1.104.108 1.459.076v15.394l-1.796.607-.122.966.095.175h6.59l.147-1.09-.065-.19-2.701-.47v-5.234c1.162.324 2.224.485 3.188.485.963 0 1.876-.21 2.74-.625a6.864 6.864 0 0 0 2.23-1.702c1.304-1.507 1.958-3.355 1.958-5.544 0-1.957-.544-3.558-1.634-4.805-1.118-1.274-2.586-1.913-4.405-1.913Zm2.593 11.548a3.975 3.975 0 0 1-1.323 1.13 3.402 3.402 0 0 1-1.6.404 4.6 4.6 0 0 1-1.465-.216c-.954-.342-1.715-.857-2.282-1.548v-8.465c1.01-.529 1.968-.795 2.877-.795 1.63 0 2.858.475 3.688 1.426.864.978 1.295 2.343 1.295 4.09 0 1.608-.397 2.931-1.19 3.974ZM72.547 20.293v-7.63c0-1.435-.364-2.578-1.095-3.43-.765-.88-1.818-1.319-3.16-1.319-1.332 0-2.948.62-4.85 1.858V.122L63.229 0l-4.08 1.507-.122.725.122.161 2.135.538v17.36l-1.757.581-.122 1.022.053.122h6.05l.204-1.077-.095-.189-2.171-.457V10.98c1.521-.69 2.923-1.035 4.2-1.035 1.827 0 2.74 1.12 2.74 3.364v6.984l-1.945.58-.123 1.021.095.122h6.415l.161-1.077-.094-.189-2.347-.457ZM40.822 20.293v-7.778c0-1.436-.374-2.557-1.12-3.365-.757-.825-1.812-1.302-3.16-1.238-3.72.177-5.35 2.152-8.01.965-.242.58-.565 1.339-.604 2.083.37.156 1.277.379 1.632.344v8.99l-1.782.578-.136 1.022.094.122h6.05l.148-1.077-.053-.189-2.162-.457V10.98c1.522-.69 2.91-1.035 4.16-1.035 1.847 0 2.77 1.067 2.77 3.203v7.145l-1.946.58-.123 1.021.053.122h6.43l.16-1.077-.066-.189-2.335-.457ZM170.178 18.961c-.927.96-2.088 1.44-3.485 1.44-1.242 0-2.346-.475-3.31-1.426-1.09-1.068-1.634-2.462-1.634-4.185 0-1.462.369-2.719 1.106-3.768.747-1.06 1.63-1.587 2.646-1.587 1.305 0 2.575.516 3.808 1.548.27-.216.523-.515.756-.896.233-.381.374-.802.42-1.259-.837-.61-2.022-.914-3.552-.914-2.045 0-3.794.754-5.253 2.26-1.459 1.507-2.188 3.328-2.188 5.464 0 1.982.581 3.606 1.743 4.871 1.215 1.328 2.84 1.991 4.875 1.991.269 0 .544-.036.823-.108 1.27-.323 2.602-1.134 3.996-2.436.005-.439-.246-.77-.751-.995ZM154.742 20.293V8.29l-.482-.435-3.557 1.86-.149.729.149.16 1.877.795v8.895l-1.782.579-.136 1.022.094.122h6.051l.15-1.077-.055-.189-2.16-.457ZM127.46 14.386l-1.242-.606a6.424 6.424 0 0 1-1.102-.66 3.118 3.118 0 0 1-.77-.826 1.81 1.81 0 0 1-.29-.976c0-.342.046-.623.136-.848.279-.771.818-1.157 1.62-1.157 1.199 0 2.19.806 3.525 1.332.235-.225.474-.524.675-.921.168-.333.244-.512.306-.926-1.369-.314-2.311-.847-3.48-.884-1.358-.043-2.494.377-3.404 1.13-.936.763-1.404 1.709-1.404 2.839 0 1.077.392 2.014 1.175 2.813.397.405 1.139.852 2.229 1.346l1.27.565c.406.188.768.4 1.088.632.321.232.576.503.77.808.194.306.291.728.291 1.273 0 .544-.247.985-.743 1.325-.216.16-.47.277-.763.349a3.929 3.929 0 0 1-.931.108 4.13 4.13 0 0 1-1.019-.136c-1.016-.278-1.968-.794-2.849-1.548-.594.547-.922 1.233-.986 2.058.27.188.74.407 1.411.652.67.246 1.608.37 2.816.37 1.441 0 2.642-.358 3.605-1.077.991-.753 1.487-1.718 1.487-2.894 0-1.05-.387-1.968-1.162-2.758-.389-.384-1.143-.845-2.259-1.383ZM106.296 1.883c-.963 1.167-1.445 2.669-1.445 4.509v1.99l-1.998.566a.796.796 0 0 0-.189.526c0 .135.018.291.053.47h2.134v10.35l-1.782.578-.136 1.022.095.122h6.726l.161-1.077-.053-.189-2.849-.457V9.945h3.43c.207-.297.311-.58.311-.848 0-.269-.023-.517-.067-.74-1.503.09-2.729.136-3.674.136V5.788c0-.745.053-1.383.161-1.911.316-1.534.865-2.301 1.648-2.301 1.199 0 2.165.305 2.905.914.235-.18.454-.453.661-.82.208-.368.321-.772.337-1.21-.782-.308-1.517-.46-2.201-.46-1.782 0-3.191.627-4.228 1.883ZM145.805 9.823c-1.115-1.275-2.583-1.91-4.402-1.91-1.005 0-2.063.337-3.172 1.012-.885.537-1.929.762-2.961.822a4.645 4.645 0 0 1-.948-.05c-.242.58-.565 1.339-.604 2.083.369.156 1.104.108 1.459.075V27.25l-1.795.606-.122.97.094.174h6.59l.147-1.09-.066-.19-2.702-.47v-5.234c1.162.324 2.224.485 3.188.485.963 0 1.876-.21 2.741-.625a6.86 6.86 0 0 0 2.228-1.702c1.305-1.507 1.96-3.355 1.96-5.544 0-1.957-.544-3.56-1.635-4.807Zm-1.809 9.637a3.973 3.973 0 0 1-1.323 1.13 3.403 3.403 0 0 1-1.6.404c-.553 0-1.041-.071-1.466-.216-.954-.34-1.714-.857-2.281-1.548v-8.465c1.009-.529 1.968-.795 2.876-.795 1.63 0 2.858.475 3.688 1.426.864.978 1.295 2.343 1.295 4.09 0 1.608-.396 2.931-1.189 3.974ZM98.45 9.93c-1.215-1.345-2.828-2.018-4.836-2.018-1.945 0-3.623.73-5.038 2.193a7.642 7.642 0 0 0-1.56 2.41 7.53 7.53 0 0 0-.575 2.907c0 2.019.604 3.691 1.81 5.02 1.251 1.374 2.853 2.058 4.808 2.058 1.98 0 3.66-.716 5.038-2.154 1.404-1.472 2.107-3.275 2.107-5.408.003-2.047-.583-3.714-1.754-5.007Zm-.959 8.264c-.576 1.865-1.855 2.8-3.835 2.8-1.199 0-2.282-.597-3.255-1.79a7.08 7.08 0 0 1-1.12-2.004 7.156 7.156 0 0 1-.433-2.524c0-.912.099-1.695.297-2.354.198-.66.482-1.204.85-1.635a3.4 3.4 0 0 1 1.344-.963 4.464 4.464 0 0 1 1.676-.317c.59 0 1.162.154 1.715.464a5.27 5.27 0 0 1 1.512 1.305c.454.56.828 1.235 1.12 2.025.293.79.438 1.656.438 2.598s-.101 1.74-.309 2.395Z" fill="#F24405"/><path d="M13.296 9.823c-1.116-1.275-2.584-1.91-4.403-1.91-1.005 0-2.063.337-3.171 1.012-.885.54-1.93.762-2.962.824a4.64 4.64 0 0 1-.947-.05c-.242.581-.565 1.339-.604 2.083.368.156 1.104.108 1.459.076v5.413a27.517 27.517 0 0 0 2.148-.358v-6.148c1.01-.529 1.968-.795 2.877-.795 1.63 0 2.858.475 3.687 1.426.586.662.957 1.516 1.146 2.533a27.358 27.358 0 0 0 2.144-1.373c-.26-1.04-.701-1.961-1.374-2.733Z" fill="#8C0303"/><path d="M184.628 14.547a4.75 4.75 0 0 0 .122-1.144c0-1.561-.396-2.843-1.189-3.849a4.314 4.314 0 0 0-1.492-1.217c-.597-.301-1.327-.45-2.187-.45-.86 0-1.708.202-2.545.606a7.243 7.243 0 0 0-2.215 1.656c-1.394 1.525-2.093 3.346-2.093 5.464 0 1.947.586 3.571 1.757 4.87 1.18 1.328 2.715 1.992 4.605 1.992.316 0 .625-.037.931-.108 1.395-.324 2.782-1.134 4.161-2.437-.046-.475-.302-.808-.77-.996-1.09.96-2.248 1.44-3.471 1.44-1.224 0-2.324-.466-3.297-1.399-1.09-1.05-1.643-2.432-1.661-4.146 1.332.037 2.597.053 3.794.053 3.602 0 5.451-.112 5.55-.335Zm-9.278-.955c.171-1.355.63-2.405 1.379-3.15.694-.709 1.516-1.062 2.471-1.062.873 0 1.625.434 2.256 1.304.576.809.865 1.69.865 2.65-1.243.17-3.216.255-5.915.255h-1.056v.003ZM22.523 20.293V8.29l-.23-.12-3.809 1.546-.15.728.15.16 1.877.795v8.895l-1.782.579-.136 1.022.094.122h6.05l.15-1.077-.055-.189-2.16-.457ZM56.394 18.961c-.927.96-2.088 1.44-3.485 1.44-1.242 0-2.347-.475-3.31-1.426-1.09-1.068-1.634-2.462-1.634-4.185 0-1.462.368-2.719 1.106-3.768.747-1.06 1.63-1.587 2.646-1.587 1.305 0 2.575.516 3.808 1.548.27-.216.523-.515.756-.896.233-.381.373-.802.42-1.259-.837-.61-2.022-.914-3.552-.914-2.045 0-3.794.754-5.253 2.26-1.46 1.507-2.188 3.328-2.188 5.464 0 1.982.581 3.606 1.743 4.871 1.214 1.328 2.84 1.991 4.875 1.991.27 0 .544-.036.823-.108 1.27-.323 2.602-1.134 3.996-2.436.005-.439-.246-.77-.751-.995ZM20.3 4.952c.194.085.392.128.595.128.203 0 .406-.05.613-.15.208-.098.434-.275.683-.53.249-.255.37-.585.37-.99 0-.376-.234-.767-.702-1.17-.27-.233-.602-.35-.998-.35-.434 0-.812.18-1.134.538-.146.163-.26.34-.346.532-.085.193-.13.437-.13.733s.178.602.529.916c.154.143.327.258.52.343ZM155.334.891c-2.595 0-4.7 2.097-4.7 4.683a4.69 4.69 0 0 0 4.7-4.683ZM72.547 20.293v-7.63c0-1.435-.364-2.578-1.095-3.43-.765-.88-1.818-1.319-3.16-1.319-1.332 0-2.948.62-4.85 1.858V.122L63.229 0l-4.08 1.507-.122.725.122.161 2.135.538v17.36l-1.757.581-.122 1.022.053.122h6.05l.204-1.077-.095-.189-2.171-.457V10.98c1.521-.69 2.923-1.035 4.2-1.035 1.827 0 2.74 1.12 2.74 3.364v6.984l-1.945.58-.123 1.021.095.122h6.415l.161-1.077-.094-.189-2.347-.457ZM40.822 20.293v-7.778c0-1.436-.374-2.557-1.12-3.365-.757-.825-1.812-1.302-3.16-1.238-3.72.177-5.35 2.152-8.01.965-.242.58-.565 1.339-.604 2.083.37.156 1.277.379 1.632.344v8.99l-1.782.578-.136 1.022.094.122h6.05l.148-1.077-.053-.189-2.162-.457V10.98c1.522-.69 2.91-1.035 4.16-1.035 1.847 0 2.77 1.067 2.77 3.203v7.145l-1.946.58-.123 1.021.053.122h6.43l.16-1.077-.066-.189-2.335-.457ZM170.178 18.961c-.927.96-2.088 1.44-3.485 1.44-1.242 0-2.346-.475-3.31-1.426-1.09-1.068-1.634-2.462-1.634-4.185 0-1.462.369-2.719 1.106-3.768.747-1.06 1.63-1.587 2.646-1.587 1.305 0 2.575.516 3.808 1.548.27-.216.523-.515.756-.896.233-.381.374-.802.42-1.259-.837-.61-2.022-.914-3.552-.914-2.045 0-3.794.754-5.253 2.26-1.459 1.507-2.188 3.328-2.188 5.464 0 1.982.581 3.606 1.743 4.871 1.215 1.328 2.84 1.991 4.875 1.991.269 0 .544-.036.823-.108 1.27-.323 2.602-1.134 3.996-2.436.005-.439-.246-.77-.751-.995ZM154.742 20.293V8.29l-.482-.435-3.557 1.86-.149.729.149.16 1.877.795v8.895l-1.782.579-.136 1.022.094.122h6.051l.15-1.077-.055-.189-2.16-.457ZM127.46 14.386l-1.242-.606a6.424 6.424 0 0 1-1.102-.66 3.118 3.118 0 0 1-.77-.826 1.81 1.81 0 0 1-.29-.976c0-.342.046-.623.136-.848.279-.771.818-1.157 1.62-1.157 1.199 0 2.19.806 3.525 1.332.235-.225.474-.524.675-.921.168-.333.244-.512.306-.926-1.369-.314-2.311-.847-3.48-.884-1.358-.043-2.494.377-3.404 1.13-.936.763-1.404 1.709-1.404 2.839 0 1.077.392 2.014 1.175 2.813.397.405 1.139.852 2.229 1.346l1.27.565c.406.188.768.4 1.088.632.321.232.576.503.77.808.194.306.291.728.291 1.273 0 .544-.247.985-.743 1.325-.216.16-.47.277-.763.349a3.929 3.929 0 0 1-.931.108 4.13 4.13 0 0 1-1.019-.136c-1.016-.278-1.968-.794-2.849-1.548-.594.547-.922 1.233-.986 2.058.27.188.74.407 1.411.652.67.246 1.608.37 2.816.37 1.441 0 2.642-.358 3.605-1.077.991-.753 1.487-1.718 1.487-2.894 0-1.05-.387-1.968-1.162-2.758-.389-.384-1.143-.845-2.259-1.383ZM145.805 9.823c-1.115-1.275-2.583-1.91-4.402-1.91-1.005 0-2.063.337-3.172 1.012-.885.537-1.929.762-2.961.822a4.645 4.645 0 0 1-.948-.05c-.242.58-.565 1.339-.604 2.083.369.156 1.104.108 1.459.075V27.25l-1.795.606-.122.97.094.174h6.59l.147-1.09-.066-.19-2.702-.47v-5.234c1.162.324 2.224.485 3.188.485.963 0 1.876-.21 2.741-.625a6.86 6.86 0 0 0 2.228-1.702c1.305-1.507 1.96-3.355 1.96-5.544 0-1.957-.544-3.56-1.635-4.807Zm-1.809 9.637a3.973 3.973 0 0 1-1.323 1.13 3.403 3.403 0 0 1-1.6.404c-.553 0-1.041-.071-1.466-.216-.954-.34-1.714-.857-2.281-1.548v-8.465c1.009-.529 1.968-.795 2.876-.795 1.63 0 2.858.475 3.688 1.426.864.978 1.295 2.343 1.295 4.09 0 1.608-.396 2.931-1.189 3.974ZM98.45 9.93c-1.215-1.345-2.828-2.018-4.836-2.018-1.945 0-3.623.73-5.038 2.193a7.642 7.642 0 0 0-1.56 2.41 7.53 7.53 0 0 0-.575 2.907c0 2.019.604 3.691 1.81 5.02 1.251 1.374 2.853 2.058 4.808 2.058 1.98 0 3.66-.716 5.038-2.154 1.404-1.472 2.107-3.275 2.107-5.408.003-2.047-.583-3.714-1.754-5.007Zm-.959 8.264c-.576 1.865-1.855 2.8-3.835 2.8-1.199 0-2.282-.597-3.255-1.79a7.08 7.08 0 0 1-1.12-2.004 7.156 7.156 0 0 1-.433-2.524c0-.912.099-1.695.297-2.354.198-.66.482-1.204.85-1.635a3.4 3.4 0 0 1 1.344-.963 4.464 4.464 0 0 1 1.676-.317c.59 0 1.162.154 1.715.464a5.27 5.27 0 0 1 1.512 1.305c.454.56.828 1.235 1.12 2.025.293.79.438 1.656.438 2.598s-.101 1.74-.309 2.395Z" fill="#F24405"/><path d="M97.761 15.282c.011.175.041.338.041.517 0 .941-.103 1.74-.31 2.395-.577 1.865-1.856 2.8-3.836 2.8-.035 0-.067-.012-.1-.014-.264.487-.49.994-.725 1.5.08.002.152.02.233.02 1.98 0 3.66-.716 5.038-2.154 1.404-1.472 2.107-3.275 2.107-5.409 0-.631-.076-1.217-.187-1.777a25.984 25.984 0 0 0-2.261 2.122ZM109.917 20.939l-.053-.189-2.849-.457V9.945h3.43c.208-.297.311-.58.311-.848 0-.269-.023-.517-.067-.74a81.41 81.41 0 0 1-2.196.104c-1.259.425-2.473.94-3.64 1.536v10.296l-1.781.58-.136 1.021.094.122h6.726l.161-1.077ZM140.511 22.5a6.25 6.25 0 0 0 2.741-.624 6.86 6.86 0 0 0 2.228-1.702c1.183-1.366 1.801-3.027 1.914-4.952a26.82 26.82 0 0 0-2.211.244l.002.025c0 1.605-.396 2.928-1.189 3.971a3.973 3.973 0 0 1-1.323 1.13 3.403 3.403 0 0 1-1.6.404c-.553 0-1.041-.071-1.466-.216-.954-.34-1.714-.856-2.281-1.548v-1.304c-.738.365-1.453.76-2.149 1.19v8.134l-1.795.607-.122.969.094.174h6.59l.147-1.09-.066-.189-2.702-.47v-5.237c1.162.324 2.225.485 3.188.485ZM182.318 13.335c-.811.11-1.968.181-3.402.22-.341.427-.668.864-.984 1.31.373.001.784.015 1.143.015 3.601 0 5.451-.112 5.551-.335.08-.324.122-.705.122-1.144 0-1.562-.397-2.843-1.19-3.849-.09-.117-.205-.209-.306-.315-.611.483-1.194.995-1.759 1.528.544.787.825 1.642.825 2.57ZM179.389 22.473a4.1 4.1 0 0 0 .931-.108c1.394-.324 2.782-1.135 4.16-2.437-.046-.475-.302-.808-.77-.997-1.09.96-2.247 1.44-3.471 1.44-1.224 0-2.323-.466-3.296-1.398a5.196 5.196 0 0 1-.841-1.086c-.454.87-.851 1.773-1.208 2.696 1.166 1.251 2.66 1.89 4.495 1.89ZM47.898 10.174c-1.46 1.507-2.188 3.328-2.188 5.464 0 .946.141 1.805.406 2.588.894-.078 1.775-.2 2.64-.36-.515-.875-.791-1.893-.791-3.075 0-1.463.368-2.72 1.106-3.77.747-1.058 1.63-1.586 2.646-1.586 1.305 0 2.575.516 3.808 1.548.27-.216.523-.515.756-.896.233-.381.373-.802.42-1.259-.837-.61-2.022-.914-3.553-.914-2.04-.002-3.791.751-5.25 2.26Z" fill="#8C0303"/><path d="m7.584 27.91-.067-.19-2.701-.47v-3.491c-.21-.028-.417-.067-.627-.067-.502 0-1.01.12-1.519.294v3.264l-1.796.606-.124.97.095.174h6.59l.15-1.09ZM74.829 22.016l.161-1.077-.094-.189-2.351-.457v-3.137a4.846 4.846 0 0 0-.814-.087c-.445 0-.896.094-1.348.232v2.99l-1.946.579-.122 1.022.095.122h6.419v.002ZM170.07 10.087c.235-.381.373-.802.419-1.259-.836-.61-2.021-.914-3.552-.914-1.237 0-2.355.31-3.379.864.189.321.429.645.71.971a2.71 2.71 0 0 1 1.238-.317c1.305 0 2.575.517 3.808 1.548.269-.213.521-.512.756-.893ZM38.648 13.148v2.68c.786-.176 1.508-.571 2.174-1.138v-2.175c0-1.436-.374-2.557-1.12-3.365-.757-.825-1.812-1.302-3.16-1.238-1.955.092-3.329.675-4.58 1.04a5.4 5.4 0 0 0-.282 1.75c0 .092.035.187.044.278 1.521-.689 2.906-1.035 4.158-1.035 1.842 0 2.766 1.067 2.766 3.203ZM123.436 9.044c-.936.763-1.404 1.709-1.404 2.839 0 1.077.392 2.014 1.176 2.813.027.03.09.062.122.092.954-.3 1.881-.666 2.787-1.068a6.536 6.536 0 0 1-.998-.597 3.082 3.082 0 0 1-.77-.827 1.803 1.803 0 0 1-.291-.976c0-.342.046-.622.136-.847.279-.772.818-1.158 1.621-1.158 1.198 0 2.189.806 3.524 1.332.235-.225.475-.523.675-.92.168-.334.245-.513.307-.926-1.369-.315-2.312-.848-3.481-.884-1.36-.049-2.496.372-3.404 1.127ZM137.323 11.254c0 .043-.007.085-.007.128h.007v-.128ZM145.805 9.823c-1.115-1.275-2.583-1.91-4.402-1.91-1.005 0-2.063.337-3.172 1.012-.249.152-.534.227-.804.333a26.39 26.39 0 0 0-.076 1.495c.998-.521 1.95-.783 2.851-.783 1.187 0 2.155.26 2.918.765a26.853 26.853 0 0 0 2.782-.779c-.037-.041-.06-.092-.097-.133ZM88.578 10.105a7.642 7.642 0 0 0-1.56 2.41c-.319.767-.473 1.573-.526 2.404a26.859 26.859 0 0 0 2.397-.965c.042-.601.113-1.162.256-1.632.198-.66.482-1.204.85-1.636a3.4 3.4 0 0 1 1.344-.962 4.465 4.465 0 0 1 1.676-.317c.59 0 1.162.154 1.715.464.097.055.184.133.279.198a26.79 26.79 0 0 0 1.627-1.48c-.885-.434-1.883-.675-3.022-.675-1.943-.002-3.623.73-5.036 2.191Z" fill="#F29F05"/></g><defs><clipPath id="a"><path fill="#fff" transform="translate(.75)" d="M0 0h184v29H0z"/></clipPath></defs></svg>